<svg width="294" height="71" viewBox="0 0 294 71" fill="none" xmlns="http://www.w3.org/2000/svg">
<path d="M1.00015 1.00012C101.313 61.668 202.619 61.1787 293 1.00012" stroke="black" stroke-width="2" stroke-linecap="round"/>
<path d="M293 1.00012V23.9952" stroke="black" stroke-width="2" stroke-linecap="round"/>
<path d="M1.00015 23.9953C101.313 84.6632 202.619 84.1739 293 23.9953" stroke="black" stroke-width="2" stroke-linecap="round"/>
<path d="M1.00015 1.00012V23.9952" stroke="black" stroke-width="2" stroke-linecap="round"/>
<path d="M1.49673 13.2314C48.6736 46.1747 172.823 92.2954 292.007 13.2314" stroke="black" stroke-linecap="round"/>
<path d="M233.408 31.8232V54.329" stroke="black" stroke-linecap="round"/>
<path d="M222.98 35.2482V57.754" stroke="black" stroke-linecap="round"/>
<path d="M210.068 38.6729V61.1787" stroke="black" stroke-linecap="round"/>
<path d="M178.286 45.0331V67.539" stroke="black" stroke-linecap="round"/>
<path d="M196.163 42.0976V64.1142" stroke="black" stroke-linecap="round"/>
<path d="M160.905 46.5009V69.0067" stroke="black" stroke-linecap="round"/>
<path d="M97.3402 40.6298V63.6249" stroke="black" stroke-linecap="round"/>
<path d="M83.932 37.2051V60.2002" stroke="black" stroke-linecap="round"/>
<path d="M60.0954 29.8663V52.3721" stroke="black" stroke-linecap="round"/>
<path d="M40.2313 21.5488V44.5439" stroke="black" stroke-linecap="round"/>
<path d="M49.1703 25.463V48.458" stroke="black" stroke-linecap="round"/>
<path d="M31.2926 17.6348V40.1406" stroke="black" stroke-linecap="round"/>
<path d="M20.8642 12.2531V34.7589" stroke="black" stroke-linecap="round"/>
<path d="M9.44229 5.89264V28.8877" stroke="black" stroke-linecap="round"/>
<path d="M72.0138 33.7802V56.7753" stroke="black" stroke-linecap="round"/>
<path d="M111.742 43.5654V66.0713" stroke="black" stroke-linecap="round"/>
<path d="M127.633 45.5226V68.0285" stroke="black" stroke-linecap="round"/>
<path d="M145.014 46.501V69.0068" stroke="black" stroke-linecap="round"/>
<path d="M245.327 27.42V49.9258" stroke="black" stroke-linecap="round"/>
<path d="M255.755 22.5275V45.0333" stroke="black" stroke-linecap="round"/>
<path d="M266.68 17.1456V39.6514" stroke="black" stroke-linecap="round"/>
<path d="M277.606 11.2745V33.291" stroke="black" stroke-linecap="round"/>
<path d="M285.551 5.89264V28.8877" stroke="black" stroke-linecap="round"/>
</svg>
