<svg width="90" height="136" viewBox="0 0 90 136" fill="none" xmlns="http://www.w3.org/2000/svg">
<path d="M67.4036 77.4488C64.0447 77.4488 61.1183 76.8228 58.6246 75.5709C56.1817 74.319 54.2732 72.5162 52.8991 70.1625C51.5759 67.7588 50.9143 64.9294 50.9143 61.6744V36.886C50.9143 33.5809 51.5759 30.7515 52.8991 28.3979C54.2732 26.0442 56.1817 24.2414 58.6246 22.9895C61.1183 21.7376 64.0447 21.1116 67.4036 21.1116C70.7625 21.1116 73.6634 21.7626 76.1063 23.0646C78.5491 24.3165 80.4319 26.1193 81.7554 28.473C83.0789 30.8266 83.7402 33.6309 83.7402 36.886H76.8697C76.8697 33.7812 76.0299 31.4025 74.3505 29.7499C72.7219 28.0473 70.4063 27.196 67.4036 27.196C64.4009 27.196 62.0344 28.0223 60.304 29.6748C58.6246 31.3274 57.7848 33.706 57.7848 36.8109V61.6744C57.7848 64.7792 58.6246 67.1829 60.304 68.8855C62.0344 70.5381 64.4009 71.3644 67.4036 71.3644C70.4063 71.3644 72.7219 70.5381 74.3505 68.8855C76.0299 67.1829 76.8697 64.7792 76.8697 61.6744H83.7402C83.7402 64.8793 83.0789 67.6837 81.7554 70.0874C80.4319 72.441 78.5491 74.2688 76.1063 75.5709C73.6634 76.8228 70.7625 77.4488 67.4036 77.4488Z" fill="#006FFF"/>
<mask id="mask0_37_74" style="mask-type:luminance" maskUnits="userSpaceOnUse" x="49" y="19" width="37" height="60">
<path d="M85.1787 19.7673H49.8215V78.2789H85.1787V19.7673Z" fill="white"/>
<path d="M67.4036 77.4488C64.0447 77.4488 61.1183 76.8228 58.6246 75.5709C56.1817 74.319 54.2732 72.5162 52.8991 70.1625C51.5759 67.7588 50.9143 64.9294 50.9143 61.6744V36.886C50.9143 33.5809 51.5759 30.7515 52.8991 28.3979C54.2732 26.0442 56.1817 24.2414 58.6246 22.9895C61.1183 21.7376 64.0447 21.1116 67.4036 21.1116C70.7625 21.1116 73.6634 21.7626 76.1063 23.0646C78.5491 24.3165 80.4319 26.1193 81.7554 28.473C83.0789 30.8266 83.7402 33.6309 83.7402 36.886H76.8697C76.8697 33.7812 76.0299 31.4025 74.3505 29.7499C72.7219 28.0473 70.4063 27.196 67.4036 27.196C64.4009 27.196 62.0344 28.0223 60.304 29.6748C58.6246 31.3274 57.7848 33.706 57.7848 36.8109V61.6744C57.7848 64.7792 58.6246 67.1829 60.304 68.8855C62.0344 70.5381 64.4009 71.3644 67.4036 71.3644C70.4063 71.3644 72.7219 70.5381 74.3505 68.8855C76.0299 67.1829 76.8697 64.7792 76.8697 61.6744H83.7402C83.7402 64.8793 83.0789 67.6837 81.7554 70.0874C80.4319 72.441 78.5491 74.2688 76.1063 75.5709C73.6634 76.8228 70.7625 77.4488 67.4036 77.4488Z" fill="black"/>
</mask>
<g mask="url(#mask0_37_74)">
<path d="M58.6247 75.5708L58.2534 76.2721L58.2595 76.2752L58.6247 75.5708ZM52.8992 70.1624L52.1927 70.539L52.1975 70.5477L52.2025 70.5563L52.8992 70.1624ZM52.8992 28.3978L52.2025 28.0039L52.1992 28.0095L52.1961 28.015L52.8992 28.3978ZM58.6247 22.9894L58.2595 22.2851L58.2535 22.2881L58.6247 22.9894ZM76.1064 23.0645L75.7236 23.7598L75.7294 23.7629L75.7352 23.7658L76.1064 23.0645ZM83.7403 36.8859V37.6766H84.5439V36.8859H83.7403ZM76.8698 36.8859H76.0662V37.6766H76.8698V36.8859ZM74.3506 29.7499L73.7654 30.2918L73.7738 30.3005L73.7824 30.309L74.3506 29.7499ZM60.3041 29.6748L59.7445 29.1074L59.7402 29.1115L59.7359 29.1157L60.3041 29.6748ZM60.3041 68.8855L59.7275 69.4362L59.7359 69.4446L59.7445 69.4529L60.3041 68.8855ZM76.8698 61.6743V60.8836H76.0662V61.6743H76.8698ZM83.7403 61.6743H84.5439V60.8836H83.7403V61.6743ZM81.7555 70.0873L82.4586 70.4701L82.4618 70.4639L81.7555 70.0873ZM76.1064 75.5708L76.4775 76.2721L76.4833 76.2691L76.4891 76.2661L76.1064 75.5708ZM67.4037 77.4487V76.658C64.1466 76.658 61.3501 76.0514 58.9899 74.8664L58.6247 75.5708L58.2595 76.2752C60.8867 77.5941 63.943 78.2394 67.4037 78.2394V77.4487ZM58.6247 75.5708L58.9958 74.8695C56.6894 73.6874 54.8938 71.9915 53.596 69.7686L52.8992 70.1624L52.2025 70.5563C53.6529 73.0407 55.6742 74.9503 58.2534 76.2721L58.6247 75.5708ZM52.8992 70.1624L53.6058 69.7858C52.3574 67.5179 51.718 64.8229 51.718 61.6743H50.9144H50.1108C50.1108 65.0358 50.7947 67.9995 52.1927 70.539L52.8992 70.1624ZM50.9144 61.6743H51.718V36.8859H50.9144H50.1108V61.6743H50.9144ZM50.9144 36.8859H51.718C51.718 33.6844 52.3585 30.9931 53.6024 28.7806L52.8992 28.3978L52.1961 28.015C50.7936 30.5098 50.1108 33.4772 50.1108 36.8859H50.9144ZM52.8992 28.3978L53.596 28.7916C54.8938 26.5687 56.6894 24.8728 58.9958 23.6907L58.6247 22.9894L58.2535 22.2881C55.6743 23.6099 53.6529 25.5195 52.2025 28.0039L52.8992 28.3978ZM58.6247 22.9894L58.9899 23.6938C61.3501 22.5088 64.1466 21.9022 67.4037 21.9022V21.1115V20.3208C63.943 20.3208 60.8867 20.9661 58.2595 22.2851L58.6247 22.9894ZM67.4037 21.1115V21.9022C70.6567 21.9022 73.4205 22.5322 75.7236 23.7598L76.1064 23.0645L76.4891 22.3693C73.9065 20.9928 70.8685 20.3208 67.4037 20.3208V21.1115ZM76.1064 23.0645L75.7352 23.7658C78.0391 24.9465 79.8062 26.639 81.0523 28.8557L81.7555 28.4729L82.4586 28.0901C81.058 25.5994 79.0593 23.6864 76.4775 22.3633L76.1064 23.0645ZM81.7555 28.4729L81.0523 28.8557C82.2971 31.0699 82.9367 33.7368 82.9367 36.8859H83.7403H84.5439C84.5439 33.525 83.86 30.5832 82.4586 28.0901L81.7555 28.4729ZM83.7403 36.8859V36.0952H76.8698V36.8859V37.6766H83.7403V36.8859ZM76.8698 36.8859H77.6733C77.6733 33.6426 76.7934 31.0354 74.9188 29.1908L74.3506 29.7499L73.7824 30.309C75.2666 31.7695 76.0662 33.9195 76.0662 36.8859H76.8698ZM74.3506 29.7499L74.9357 29.2079C73.1174 27.3069 70.5659 26.4052 67.4037 26.4052V27.1959V27.9866C70.2469 27.9866 72.3265 28.7875 73.7654 30.2918L74.3506 29.7499ZM67.4037 27.1959V26.4052C64.246 26.4052 61.6594 27.2785 59.7445 29.1074L60.3041 29.6748L60.8638 30.2422C62.4095 28.7659 64.5561 27.9866 67.4037 27.9866V27.1959ZM60.3041 29.6748L59.7359 29.1157C57.8613 30.9603 56.9814 33.5675 56.9814 36.8108H57.7849H58.5885C58.5885 33.8444 59.3881 31.6944 60.8723 30.2339L60.3041 29.6748ZM57.7849 36.8108H56.9814V61.6743H57.7849H58.5885V36.8108H57.7849ZM57.7849 61.6743H56.9814C56.9814 64.9191 57.8618 67.5447 59.7275 69.4362L60.3041 68.8855L60.8808 68.3347C59.3875 66.8209 58.5885 64.6392 58.5885 61.6743H57.7849ZM60.3041 68.8855L59.7445 69.4529C61.6594 71.2817 64.246 72.155 67.4037 72.155V71.3643V70.5736C64.5561 70.5736 62.4095 69.7943 60.8638 68.3181L60.3041 68.8855ZM67.4037 71.3643V72.155C70.5589 72.155 73.1077 71.2825 74.9274 69.4359L74.3506 68.8855L73.7739 68.3347C72.3366 69.7933 70.2538 70.5736 67.4037 70.5736V71.3643ZM74.3506 68.8855L74.9274 69.4359C76.7931 67.5444 77.6733 64.9191 77.6733 61.6743H76.8698H76.0662C76.0662 64.6392 75.2672 66.8209 73.7739 68.3347L74.3506 68.8855ZM76.8698 61.6743V62.465H83.7403V61.6743V60.8836H76.8698V61.6743ZM83.7403 61.6743H82.9367C82.9367 64.7705 82.2987 67.4411 81.0491 69.7107L81.7555 70.0873L82.4618 70.4639C83.8592 67.9261 84.5439 64.988 84.5439 61.6743H83.7403ZM81.7555 70.0873L81.0523 69.7045C79.8046 71.9238 78.0339 73.6442 75.7236 74.8755L76.1064 75.5708L76.4891 76.2661C79.0646 74.8933 81.0596 72.9581 82.4586 70.4701L81.7555 70.0873ZM76.1064 75.5708L75.7352 74.8695C73.4294 76.0512 70.6614 76.658 67.4037 76.658V77.4487V78.2394C70.8639 78.2394 73.8976 77.5943 76.4775 76.2721L76.1064 75.5708Z" fill="black"/>
</g>
<path d="M19.6876 69.0183H18.884V76.0777H19.6876V69.0183Z" fill="black"/>
<path d="M19.6876 20.3875H18.884V27.4468H19.6876V20.3875Z" fill="black"/>
<path d="M23.7054 43.134H22.9019V50.1934H23.7054V43.134Z" fill="black"/>
<path d="M30.1339 43.3318C32.2434 43.3318 33.9508 45.0006 33.9508 47.056C33.9508 49.1112 32.2434 50.7801 30.1339 50.7801C28.0243 50.7801 26.3169 49.1112 26.3169 47.056C26.3169 45.0006 28.0243 43.3318 30.1339 43.3318Z" fill="#D2BA44" stroke="black" stroke-width="0.5"/>
<path d="M32.5447 47.0559C32.5447 47.8403 32.0626 49.409 30.134 49.409" stroke="black" stroke-width="0.5"/>
<path d="M80.3572 43.686C82.4666 43.686 84.1742 45.3549 84.1742 47.4102C84.1742 49.4655 82.4666 51.1343 80.3572 51.1343C78.2477 51.1343 76.5403 49.4655 76.5403 47.4102C76.5403 45.3549 78.2477 43.686 80.3572 43.686Z" fill="#D2BA44" stroke="black" stroke-width="0.5"/>
<path d="M77.9465 47.4229C77.9465 46.6386 78.4287 45.0698 80.3572 45.0698" stroke="black" stroke-width="0.5"/>
<path d="M19.6874 28.0224H9.20489V43.4171H23.7053V51.0832H9.20489V68.9565H19.6874V76.6975H0.803467V20.2815H19.6874V28.0224Z" fill="#006FFF"/>
<mask id="mask1_37_74" style="mask-type:luminance" maskUnits="userSpaceOnUse" x="0" y="19" width="25" height="60">
<path d="M24.9107 19.4907H0V78.0023H24.9107V19.4907Z" fill="white"/>
<path d="M19.6874 28.0224H9.20489V43.4171H23.7053V51.0832H9.20489V68.9565H19.6874V76.6975H0.803467V20.2815H19.6874V28.0224Z" fill="black"/>
</mask>
<g mask="url(#mask1_37_74)">
<path d="M19.6875 28.0224V28.813H20.4911V28.0224H19.6875ZM9.20499 28.0224V27.2317H8.40142V28.0224H9.20499ZM9.20499 43.417H8.40142V44.2077H9.20499V43.417ZM23.7054 43.417H24.5089V42.6263H23.7054V43.417ZM23.7054 51.0831V51.8738H24.5089V51.0831H23.7054ZM9.20499 51.0831V50.2924H8.40142V51.0831H9.20499ZM9.20499 68.9564H8.40142V69.7471H9.20499V68.9564ZM19.6875 68.9564H20.4911V68.1657H19.6875V68.9564ZM19.6875 76.6974V77.4881H20.4911V76.6974H19.6875ZM0.803571 76.6974H0V77.4881H0.803571V76.6974ZM0.803571 20.2814V19.4907H0V20.2814H0.803571ZM19.6875 20.2814H20.4911V19.4907H19.6875V20.2814ZM19.6875 28.0224V27.2317H9.20499V28.0224V28.813H19.6875V28.0224ZM9.20499 28.0224H8.40142V43.417H9.20499H10.0086V28.0224H9.20499ZM9.20499 43.417V44.2077H23.7054V43.417V42.6263H9.20499V43.417ZM23.7054 43.417H22.9018V51.0831H23.7054H24.5089V43.417H23.7054ZM23.7054 51.0831V50.2924H9.20499V51.0831V51.8738H23.7054V51.0831ZM9.20499 51.0831H8.40142V68.9564H9.20499H10.0086V51.0831H9.20499ZM9.20499 68.9564V69.7471H19.6875V68.9564V68.1657H9.20499V68.9564ZM19.6875 68.9564H18.8839V76.6974H19.6875H20.4911V68.9564H19.6875ZM19.6875 76.6974V75.9067H0.803571V76.6974V77.4881H19.6875V76.6974ZM0.803571 76.6974H1.60714V20.2814H0.803571H0V76.6974H0.803571ZM0.803571 20.2814V21.0721H19.6875V20.2814V19.4907H0.803571V20.2814ZM19.6875 20.2814H18.8839V28.0224H19.6875H20.4911V20.2814H19.6875Z" fill="black"/>
</g>
<path d="M52.3419 99.2325V107.535H50.1868V93.7332H52.2688V95.8902H52.4514C52.7801 95.1889 53.2793 94.6259 53.949 94.2005C54.6186 93.7696 55.4831 93.5537 56.5423 93.5537C57.492 93.5537 58.3229 93.7458 59.0352 94.1285C59.7475 94.5065 60.3015 95.0813 60.6972 95.8538C61.0928 96.6208 61.2907 97.591 61.2907 98.7652V107.535H59.1357V98.9091C59.1357 97.8251 58.8495 96.9806 58.2773 96.3749C57.7051 95.7645 56.9197 95.4585 55.9214 95.4585C55.2334 95.4585 54.6186 95.6056 54.0769 95.8989C53.5411 96.1923 53.118 96.6208 52.8075 97.1838C52.497 97.7468 52.3419 98.4299 52.3419 99.2325ZM70.8902 112.998C69.8492 112.998 68.9543 112.866 68.2055 112.602C67.4567 112.345 66.8328 112.004 66.3336 111.578C65.8405 111.159 65.4478 110.709 65.1556 110.23L66.8724 109.044C67.0672 109.296 67.3137 109.584 67.612 109.907C67.9103 110.237 68.3182 110.521 68.8356 110.761C69.3591 111.006 70.044 111.129 70.8902 111.129C72.0225 111.129 72.9569 110.86 73.6936 110.32C74.4302 109.781 74.7985 108.937 74.7985 107.786V104.983H74.6158C74.4575 105.235 74.2323 105.546 73.9401 105.918C73.6539 106.283 73.24 106.61 72.6983 106.897C72.1625 107.178 71.4381 107.319 70.5249 107.319C69.3926 107.319 68.376 107.056 67.475 106.528C66.5801 106.002 65.8709 105.235 65.3473 104.228C64.8299 103.222 64.5712 102 64.5712 100.562C64.5712 99.1487 64.8238 97.9176 65.3291 96.8691C65.8344 95.8151 66.5375 95.0007 67.4385 94.4251C68.3394 93.8447 69.3805 93.5537 70.5615 93.5537C71.4746 93.5537 72.199 93.7039 72.7347 94.0028C73.2765 94.297 73.6905 94.6322 73.9767 95.0094C74.2688 95.381 74.4941 95.6862 74.6524 95.9258H74.8715V93.7332H76.9535V107.93C76.9535 109.116 76.6796 110.081 76.1317 110.823C75.5898 111.572 74.8593 112.12 73.9401 112.468C73.0269 112.821 72.0103 112.998 70.8902 112.998ZM70.8171 105.414C71.6816 105.414 72.4121 105.22 73.0087 104.831C73.6053 104.441 74.0588 103.881 74.3693 103.15C74.6798 102.419 74.835 101.545 74.835 100.526C74.835 99.5322 74.6828 98.6545 74.3784 97.8939C74.0741 97.1332 73.6236 96.537 73.0269 96.1053C72.4303 95.6744 71.6938 95.4585 70.8171 95.4585C69.904 95.4585 69.143 95.6862 68.5342 96.1417C67.9316 96.5971 67.478 97.2075 67.1737 97.9745C66.8753 98.7415 66.7262 99.5923 66.7262 100.526C66.7262 101.484 66.8784 102.332 67.1828 103.069C67.4933 103.8 67.9499 104.375 68.5526 104.794C69.1613 105.208 69.9161 105.414 70.8171 105.414Z" fill="#006FFF"/>
<mask id="mask2_37_74" style="mask-type:luminance" maskUnits="userSpaceOnUse" x="49" y="92" width="29" height="22">
<path d="M77.9464 92.5117H49.0178V113.861H77.9464V92.5117Z" fill="white"/>
<path d="M52.3416 99.2327V107.535H50.1865V93.7334H52.2686V95.8905H52.4511C52.7799 95.1891 53.2791 94.6261 53.9488 94.2007C54.6184 93.7698 55.4829 93.554 56.5421 93.554C57.4918 93.554 58.3227 93.7461 59.035 94.1288C59.7473 94.5067 60.3012 95.0816 60.6969 95.8541C61.0926 96.6211 61.2904 97.5913 61.2904 98.7654V107.535H59.1354V98.9094C59.1354 97.8253 58.8493 96.9808 58.277 96.3752C57.7048 95.7647 56.9195 95.4587 55.9211 95.4587C55.2332 95.4587 54.6184 95.6058 54.0766 95.8992C53.5409 96.1925 53.1178 96.6211 52.8073 97.184C52.4968 97.747 52.3416 98.4302 52.3416 99.2327ZM70.89 112.998C69.849 112.998 68.9541 112.866 68.2052 112.603C67.4565 112.345 66.8325 112.004 66.3333 111.579C65.8403 111.159 65.4475 110.71 65.1554 110.231L66.8721 109.045C67.0669 109.296 67.3134 109.584 67.6117 109.907C67.91 110.237 68.3179 110.522 68.8353 110.761C69.3589 111.006 70.0437 111.129 70.89 111.129C72.0222 111.129 72.9567 110.86 73.6933 110.321C74.4299 109.781 74.7982 108.937 74.7982 107.787V104.983H74.6156C74.4573 105.235 74.232 105.546 73.9399 105.918C73.6537 106.283 73.2398 106.61 72.698 106.897C72.1623 107.178 71.4379 107.319 70.5247 107.319C69.3924 107.319 68.3758 107.056 67.4748 106.529C66.5799 106.002 65.8706 105.235 65.3471 104.228C64.8297 103.222 64.5709 102 64.5709 100.563C64.5709 99.1489 64.8236 97.9178 65.3289 96.8694C65.8341 95.8154 66.5373 95.0009 67.4382 94.4253C68.3392 93.8449 69.3802 93.554 70.5612 93.554C71.4743 93.554 72.1988 93.7042 72.7345 94.0031C73.2763 94.2972 73.6903 94.6325 73.9764 95.0096C74.2686 95.3813 74.4938 95.6865 74.6521 95.926H74.8713V93.7334H76.9532V107.93C76.9532 109.116 76.6793 110.081 76.1314 110.824C75.5896 111.572 74.8591 112.12 73.9399 112.468C73.0267 112.822 72.0101 112.998 70.89 112.998ZM70.8169 105.414C71.6813 105.414 72.4119 105.22 73.0084 104.831C73.605 104.441 74.0585 103.881 74.369 103.151C74.6795 102.419 74.8347 101.545 74.8347 100.526C74.8347 99.5324 74.6825 98.6547 74.3782 97.8941C74.0738 97.1334 73.6233 96.5373 73.0267 96.1055C72.4301 95.6746 71.6936 95.4587 70.8169 95.4587C69.9038 95.4587 69.1428 95.6865 68.534 96.1419C67.9313 96.5974 67.4778 97.2078 67.1735 97.9747C66.8751 98.7417 66.726 99.5925 66.726 100.526C66.726 101.485 66.8782 102.332 67.1825 103.069C67.493 103.801 67.9496 104.375 68.5523 104.795C69.161 105.208 69.9159 105.414 70.8169 105.414Z" fill="black"/>
</mask>
<g mask="url(#mask2_37_74)">
<path d="M52.3417 107.535V108.326H53.1453V107.535H52.3417ZM50.1866 107.535H49.3831V108.326H50.1866V107.535ZM50.1866 93.7334V92.9427H49.3831V93.7334H50.1866ZM52.2687 93.7334H53.0723V92.9427H52.2687V93.7334ZM52.2687 95.8904H51.4651V96.6811H52.2687V95.8904ZM52.4513 95.8904V96.6811H52.9655L53.1809 96.2217L52.4513 95.8904ZM53.9489 94.2007L54.3847 94.8656L54.3889 94.8625L53.9489 94.2007ZM59.0351 94.1287L58.6494 94.8229L58.6541 94.8253L59.0351 94.1287ZM60.697 95.854L59.9794 96.2098L59.9806 96.2122L60.697 95.854ZM61.2905 107.535V108.326H62.0941V107.535H61.2905ZM59.1355 107.535H58.3319V108.326H59.1355V107.535ZM58.2771 96.3751L57.6863 96.9112L57.6889 96.9143L58.2771 96.3751ZM54.0767 95.8991L53.6892 95.2064L53.6858 95.208L54.0767 95.8991ZM52.3417 99.2327H51.5382V107.535H52.3417H53.1453V99.2327H52.3417ZM52.3417 107.535V106.744H50.1866V107.535V108.326H52.3417V107.535ZM50.1866 107.535H50.9902V93.7334H50.1866H49.3831V107.535H50.1866ZM50.1866 93.7334V94.5241H52.2687V93.7334V92.9427H50.1866V93.7334ZM52.2687 93.7334H51.4651V95.8904H52.2687H53.0723V93.7334H52.2687ZM52.2687 95.8904V96.6811H52.4513V95.8904V95.0997H52.2687V95.8904ZM52.4513 95.8904L53.1809 96.2217C53.4447 95.6595 53.8409 95.2104 54.3847 94.8656L53.9489 94.2007L53.5131 93.5365C52.7176 94.0417 52.1154 94.7194 51.7217 95.5591L52.4513 95.8904ZM53.9489 94.2007L54.3889 94.8625C54.8916 94.5391 55.5897 94.3446 56.5422 94.3446V93.5539V92.7632C55.3762 92.7632 54.3453 93.0004 53.5088 93.5397L53.9489 94.2007ZM56.5422 93.5539V94.3446C57.38 94.3446 58.0741 94.513 58.6494 94.8229L59.0351 94.1287L59.4207 93.4353C58.5716 92.9783 57.6037 92.7632 56.5422 92.7632V93.5539ZM59.0351 94.1287L58.6541 94.8253C59.2086 95.1195 59.6509 95.5686 59.9794 96.2098L60.697 95.854L61.4146 95.4982C60.9516 94.5944 60.2861 93.8939 59.4161 93.4329L59.0351 94.1287ZM60.697 95.854L59.9806 96.2122C60.302 96.8353 60.487 97.6726 60.487 98.7654H61.2905H62.0941C62.0941 97.5097 61.8834 96.4067 61.4135 95.4958L60.697 95.854ZM61.2905 98.7654H60.487V107.535H61.2905H62.0941V98.7654H61.2905ZM61.2905 107.535V106.744H59.1355V107.535V108.326H61.2905V107.535ZM59.1355 107.535H59.9391V98.9093H59.1355H58.3319V107.535H59.1355ZM59.1355 98.9093H59.9391C59.9391 97.6892 59.6148 96.6289 58.8654 95.8366L58.2771 96.3751L57.6889 96.9143C58.0841 97.3318 58.3319 97.9604 58.3319 98.9093H59.1355ZM58.2771 96.3751L58.8681 95.8398C58.1159 95.0364 57.0995 94.668 55.9212 94.668V95.4587V96.2494C56.7398 96.2494 57.294 96.4921 57.6863 96.9112L58.2771 96.3751ZM55.9212 95.4587V94.668C55.1133 94.668 54.3626 94.8419 53.6892 95.2064L54.0767 95.8991L54.4643 96.5917C54.8744 96.3696 55.3534 96.2494 55.9212 96.2494V95.4587ZM54.0767 95.8991L53.6858 95.208C53.0084 95.5797 52.4796 96.1205 52.1011 96.8068L52.8074 97.184L53.5137 97.5611C53.7562 97.1215 54.0735 96.806 54.4676 96.5902L54.0767 95.8991ZM52.8074 97.184L52.1011 96.8068C51.7126 97.5113 51.5382 98.3313 51.5382 99.2327H52.3417H53.1453C53.1453 98.529 53.2813 97.9826 53.5137 97.5611L52.8074 97.184ZM68.2054 112.603L68.4761 111.858L68.4705 111.856L68.2054 112.603ZM66.3334 111.579L66.8595 110.981L66.8589 110.98L66.3334 111.579ZM65.1555 110.23L64.6937 109.584L64.0816 110.006L64.4664 110.638L65.1555 110.23ZM66.8722 109.044L67.5114 108.565L67.043 107.96L66.4104 108.398L66.8722 109.044ZM67.6118 109.907L68.2119 109.381L68.207 109.376L67.6118 109.907ZM68.8354 110.761L69.1813 110.047L69.1776 110.045L68.8354 110.761ZM74.7983 104.983H75.6019V104.193H74.7983V104.983ZM74.6157 104.983V104.193H74.1681L73.9324 104.567L74.6157 104.983ZM73.94 105.918L73.3046 105.433L73.3035 105.435L73.94 105.918ZM72.6981 106.897L73.0767 107.594L73.0795 107.593L72.6981 106.897ZM67.4749 106.528L67.0621 107.207L67.0642 107.208L67.4749 106.528ZM65.3472 104.228L64.6302 104.586L64.632 104.589L65.3472 104.228ZM65.329 96.8693L66.055 97.2085L66.0558 97.2069L65.329 96.8693ZM67.4383 94.4252L67.8756 95.0886L67.8789 95.087L67.4383 94.4252ZM72.7346 94.003L72.3376 94.6909L72.347 94.6956L72.7346 94.003ZM73.9765 95.0096L73.3324 95.4824L73.3367 95.4879L73.3411 95.4935L73.9765 95.0096ZM74.6522 95.926L73.9785 96.3569L74.2162 96.7167H74.6522V95.926ZM74.8714 95.926V96.7167H75.675V95.926H74.8714ZM74.8714 93.7334V92.9427H74.0678V93.7334H74.8714ZM76.9534 93.7334H77.7569V92.9427H76.9534V93.7334ZM76.1315 110.824L75.4811 110.359L75.477 110.365L76.1315 110.824ZM73.94 112.468L73.6518 111.73L73.6459 111.732L73.94 112.468ZM68.5341 96.1418L68.0479 95.5124L68.0448 95.5148L68.5341 96.1418ZM67.1736 97.9747L66.425 97.6869L66.423 97.6924L67.1736 97.9747ZM67.1827 103.069L66.4382 103.367L66.4413 103.374L67.1827 103.069ZM68.5524 104.794L68.0884 105.44L68.096 105.445L68.5524 104.794ZM70.8901 112.998V112.207C69.9144 112.207 69.1158 112.083 68.4761 111.859L68.2054 112.603L67.9347 113.347C68.7925 113.649 69.7837 113.789 70.8901 113.789V112.998ZM68.2054 112.603L68.4705 111.856C67.7987 111.625 67.2682 111.329 66.8595 110.981L66.3334 111.579L65.8074 112.176C66.397 112.678 67.1145 113.065 67.9402 113.349L68.2054 112.603ZM66.3334 111.579L66.8589 110.98C66.4209 110.608 66.0869 110.221 65.8445 109.824L65.1555 110.23L64.4664 110.638C64.8084 111.198 65.2591 111.711 65.8074 112.176L66.3334 111.579ZM65.1555 110.23L65.6172 110.878L67.334 109.692L66.8722 109.044L66.4104 108.398L64.6937 109.584L65.1555 110.23ZM66.8722 109.044L66.233 109.524C66.4459 109.799 66.7084 110.104 67.0167 110.438L67.6118 109.907L68.207 109.376C67.9187 109.063 67.6882 108.794 67.5114 108.565L66.8722 109.044ZM67.6118 109.907L67.0118 110.433C67.3991 110.861 67.9038 111.203 68.4933 111.476L68.8354 110.761L69.1776 110.045C68.7323 109.839 68.4211 109.612 68.2119 109.381L67.6118 109.907ZM68.8354 110.761L68.4897 111.474C69.1591 111.788 69.9749 111.919 70.8901 111.919V111.129V110.338C70.1129 110.338 69.5589 110.224 69.1813 110.047L68.8354 110.761ZM70.8901 111.129V111.919C72.154 111.919 73.2681 111.617 74.173 110.955L73.6934 110.321L73.2139 109.686C72.6456 110.102 71.8906 110.338 70.8901 110.338V111.129ZM73.6934 110.321L74.173 110.955C75.168 110.227 75.6019 109.112 75.6019 107.786H74.7983H73.9948C73.9948 108.762 73.6921 109.336 73.2139 109.686L73.6934 110.321ZM74.7983 107.786H75.6019V104.983H74.7983H73.9948V107.786H74.7983ZM74.7983 104.983V104.193H74.6157V104.983V105.774H74.7983V104.983ZM74.6157 104.983L73.9324 104.567C73.7948 104.786 73.5883 105.073 73.3046 105.433L73.94 105.918L74.5753 106.402C74.876 106.019 75.12 105.684 75.299 105.399L74.6157 104.983ZM73.94 105.918L73.3035 105.435C73.1042 105.69 72.7888 105.95 72.3167 106.201L72.6981 106.897L73.0795 107.593C73.6909 107.269 74.2035 106.876 74.5765 106.4L73.94 105.918ZM72.6981 106.897L72.3195 106.2C71.9444 106.396 71.367 106.528 70.5248 106.528V107.319V108.11C71.5089 108.11 72.3804 107.96 73.0767 107.594L72.6981 106.897ZM70.5248 107.319V106.528C69.5251 106.528 68.6524 106.298 67.8855 105.849L67.4749 106.528L67.0642 107.208C68.0994 107.814 69.26 108.11 70.5248 108.11V107.319ZM67.4749 106.528L67.8876 105.85C67.1348 105.406 66.5247 104.756 66.0625 103.869L65.3472 104.228L64.632 104.589C65.2169 105.713 66.0252 106.596 67.0621 107.207L67.4749 106.528ZM65.3472 104.228L66.0642 103.872C65.6171 103.002 65.3746 101.909 65.3746 100.563H64.571H63.7675C63.7675 102.091 64.0424 103.442 64.6302 104.586L65.3472 104.228ZM64.571 100.563H65.3746C65.3746 99.2406 65.6107 98.1304 66.055 97.2085L65.329 96.8693L64.6029 96.5309C64.0367 97.7058 63.7675 99.0563 63.7675 100.563H64.571ZM65.329 96.8693L66.0558 97.2069C66.504 96.2715 67.1128 95.5757 67.8756 95.0886L67.4383 94.4252L67.001 93.7618C65.9619 94.4252 65.1644 95.359 64.6021 96.5324L65.329 96.8693ZM67.4383 94.4252L67.8789 95.087C68.6364 94.5984 69.5211 94.3446 70.5613 94.3446V93.5539V92.7632C69.2395 92.7632 68.0422 93.0905 66.9978 93.7642L67.4383 94.4252ZM70.5613 93.5539V94.3446C71.3976 94.3446 71.9675 94.4837 72.3376 94.6909L72.7346 94.003L73.1316 93.3159C72.4303 92.9237 71.5513 92.7632 70.5613 92.7632V93.5539ZM72.7346 94.003L72.347 94.6956C72.8166 94.9503 73.1318 95.2175 73.3324 95.4824L73.9765 95.0096L74.6206 94.5367C74.2489 94.0465 73.7363 93.6432 73.1222 93.3103L72.7346 94.003ZM73.9765 95.0096L73.3411 95.4935C73.6271 95.8572 73.8373 96.1434 73.9785 96.3569L74.6522 95.926L75.326 95.495C75.1505 95.2294 74.9102 94.9044 74.6119 94.5256L73.9765 95.0096ZM74.6522 95.926V96.7167H74.8714V95.926V95.1353H74.6522V95.926ZM74.8714 95.926H75.675V93.7334H74.8714H74.0678V95.926H74.8714ZM74.8714 93.7334V94.5241H76.9534V93.7334V92.9427H74.8714V93.7334ZM76.9534 93.7334H76.1498V107.93H76.9534H77.7569V93.7334H76.9534ZM76.9534 107.93H76.1498C76.1498 108.999 75.9038 109.786 75.4811 110.359L76.1315 110.824L76.7819 111.288C77.4549 110.375 77.7569 109.234 77.7569 107.93H76.9534ZM76.1315 110.824L75.477 110.365C75.0318 110.98 74.4321 111.435 73.6518 111.73L73.94 112.468L74.2281 113.206C75.2863 112.806 76.1476 112.165 76.7861 111.282L76.1315 110.824ZM73.94 112.468L73.6459 111.732C72.8387 112.044 71.9236 112.207 70.8901 112.207V112.998V113.789C72.0967 113.789 73.215 113.598 74.2341 113.204L73.94 112.468ZM70.817 105.414V106.205C71.8062 106.205 72.6992 105.981 73.4528 105.489L73.0085 104.831L72.5644 104.171C72.1246 104.458 71.5567 104.624 70.817 104.624V105.414ZM73.0085 104.831L73.4528 105.489C74.1979 105.003 74.7467 104.311 75.1105 103.455L74.3692 103.151L73.6278 102.845C73.3707 103.45 73.0124 103.879 72.5644 104.171L73.0085 104.831ZM74.3692 103.151L75.1105 103.455C75.472 102.604 75.6384 101.621 75.6384 100.526H74.8348H74.0312C74.0312 101.469 73.8872 102.234 73.6278 102.845L74.3692 103.151ZM74.8348 100.526H75.6384C75.6384 99.4541 75.4743 98.4752 75.126 97.6038L74.3783 97.894L73.6306 98.1834C73.891 98.8342 74.0312 99.6106 74.0312 100.526H74.8348ZM74.3783 97.894L75.126 97.6038C74.7731 96.7222 74.2358 95.9987 73.5026 95.4689L73.0268 96.1055L72.5511 96.7428C73.011 97.0756 73.3747 97.5437 73.6306 98.1834L74.3783 97.894ZM73.0268 96.1055L73.5026 95.4689C72.744 94.9202 71.8323 94.668 70.817 94.668V95.4587V96.2494C71.555 96.2494 72.1164 96.4289 72.5511 96.7428L73.0268 96.1055ZM70.817 95.4587V94.668C69.7634 94.668 68.8221 94.9329 68.0479 95.5124L68.5341 96.1418L69.0203 96.7712C69.4637 96.4399 70.0442 96.2494 70.817 96.2494V95.4587ZM68.5341 96.1418L68.0448 95.5148C67.3144 96.0667 66.7772 96.7997 66.425 97.6869L67.1736 97.9747L67.922 98.2625C68.1787 97.6157 68.5486 97.1278 69.0235 96.7689L68.5341 96.1418ZM67.1736 97.9747L66.423 97.6924C66.0851 98.5606 65.9225 99.5086 65.9225 100.526H66.7261H67.5296C67.5296 99.6755 67.6653 98.9227 67.924 98.2577L67.1736 97.9747ZM66.7261 100.526H65.9225C65.9225 101.567 66.0877 102.519 66.4382 103.367L67.1827 103.069L67.9271 102.772C67.6689 102.146 67.5296 101.403 67.5296 100.526H66.7261ZM67.1827 103.069L66.4413 103.374C66.8044 104.229 67.3516 104.927 68.0884 105.44L68.5524 104.794L69.0163 104.149C68.5478 103.823 68.1818 103.371 67.924 102.765L67.1827 103.069ZM68.5524 104.794L68.096 105.445C68.8659 105.968 69.789 106.205 70.817 106.205V105.414V104.624C70.043 104.624 69.4564 104.447 69.0088 104.144L68.5524 104.794Z" fill="black"/>
</g>
<path d="M12.0085 109.116V90.6455H18.0514C19.2171 90.6455 20.2285 90.8732 21.0857 91.3287C21.9429 91.7675 22.6028 92.3914 23.0657 93.201C23.5457 94.0107 23.7857 94.9722 23.7857 96.0855C23.7857 97.1822 23.5457 98.1437 23.0657 98.97C22.6028 99.7796 21.9429 100.412 21.0857 100.868C20.2285 101.306 19.2171 101.526 18.0514 101.526H14.3228V109.116H12.0085ZM14.3228 99.476H18.0514C19.0629 99.476 19.8685 99.1724 20.4685 98.5651C21.0857 97.9413 21.3943 97.1142 21.3943 96.0855C21.3943 95.0394 21.0857 94.2131 20.4685 93.6059C19.8685 92.9986 19.0629 92.695 18.0514 92.695H14.3228V99.476Z" fill="#006FFF"/>
<mask id="mask3_37_74" style="mask-type:luminance" maskUnits="userSpaceOnUse" x="10" y="89" width="15" height="21">
<path d="M24.9108 89.3489H10.4465V109.907H24.9108V89.3489Z" fill="white"/>
<path d="M12.0088 109.116V90.6455H18.0516C19.2174 90.6455 20.2288 90.8732 21.0859 91.3287C21.9431 91.7675 22.6031 92.3914 23.0659 93.201C23.5459 94.0107 23.7859 94.9722 23.7859 96.0855C23.7859 97.1822 23.5459 98.1437 23.0659 98.97C22.6031 99.7796 21.9431 100.412 21.0859 100.868C20.2288 101.306 19.2174 101.526 18.0516 101.526H14.3231V109.116H12.0088ZM14.3231 99.476H18.0516C19.0631 99.476 19.8688 99.1724 20.4688 98.5651C21.0859 97.9413 21.3945 97.1142 21.3945 96.0855C21.3945 95.0394 21.0859 94.2131 20.4688 93.6059C19.8688 92.9986 19.0631 92.695 18.0516 92.695H14.3231V99.476Z" fill="black"/>
</mask>
<g mask="url(#mask3_37_74)">
<path d="M12.0086 109.116H11.2051V109.907H12.0086V109.116ZM12.0086 90.6457V89.855H11.2051V90.6457H12.0086ZM21.0858 91.3288L20.704 92.0247L20.7095 92.0278L20.715 92.0302L21.0858 91.3288ZM23.0658 93.2012L22.3654 93.5887L22.3685 93.5942L22.3717 93.5997L23.0658 93.2012ZM23.0658 98.9701L22.3681 98.578L22.3654 98.5827L23.0658 98.9701ZM21.0858 100.868L21.4566 101.569L21.4621 101.567L21.4676 101.564L21.0858 100.868ZM14.3229 101.526V100.735H13.5194V101.526H14.3229ZM14.3229 109.116V109.907H15.1265V109.116H14.3229ZM14.3229 99.4762H13.5194V100.267H14.3229V99.4762ZM20.4686 93.6061L19.8924 94.1572L19.9004 94.1651L20.4686 93.6061ZM14.3229 92.6952V91.9045H13.5194V92.6952H14.3229ZM12.0086 109.116H12.8122V90.6457H12.0086H11.2051V109.116H12.0086ZM12.0086 90.6457V91.4364H18.0515V90.6457V89.855H12.0086V90.6457ZM18.0515 90.6457V91.4364C19.1101 91.4364 19.9851 91.6428 20.704 92.0247L21.0858 91.3288L21.4676 90.633C20.4722 90.1041 19.3244 89.855 18.0515 89.855V90.6457ZM21.0858 91.3288L20.715 92.0302C21.4371 92.3994 21.981 92.9166 22.3654 93.5887L23.0658 93.2012L23.7662 92.8138C23.2249 91.8665 22.4488 91.1351 21.4566 90.6275L21.0858 91.3288ZM23.0658 93.2012L22.3717 93.5997C22.7676 94.2671 22.9822 95.0862 22.9822 96.0857H23.7858H24.5894C24.5894 94.8585 24.324 93.7547 23.7599 92.8027L23.0658 93.2012ZM23.7858 96.0857H22.9822C22.9822 97.0653 22.7687 97.8877 22.3681 98.578L23.0658 98.9701L23.7635 99.3623C24.3228 98.3993 24.5894 97.2986 24.5894 96.0857H23.7858ZM23.0658 98.9701L22.3654 98.5827C21.9794 99.258 21.432 99.7854 20.704 100.172L21.0858 100.868L21.4676 101.564C22.454 101.039 23.2264 100.302 23.7662 99.3576L23.0658 98.9701ZM21.0858 100.868L20.715 100.166C19.9937 100.536 19.1146 100.735 18.0515 100.735V101.526V102.316C19.3199 102.316 20.4635 102.078 21.4566 101.569L21.0858 100.868ZM18.0515 101.526V100.735H14.3229V101.526V102.316H18.0515V101.526ZM14.3229 101.526H13.5194V109.116H14.3229H15.1265V101.526H14.3229ZM14.3229 109.116V108.326H12.0086V109.116V109.907H14.3229V109.116ZM14.3229 99.4762V100.267H18.0515V99.4762V98.6855H14.3229V99.4762ZM18.0515 99.4762V100.267C19.2389 100.267 20.267 99.904 21.0448 99.1164L20.4686 98.5653L19.8927 98.0142C19.4705 98.4412 18.887 98.6855 18.0515 98.6855V99.4762ZM20.4686 98.5653L21.0448 99.1164C21.8341 98.3186 22.1979 97.2804 22.1979 96.0857H21.3944H20.5908C20.5908 96.9491 20.3377 97.5635 19.8927 98.0142L20.4686 98.5653ZM21.3944 96.0857H22.1979C22.1979 94.8791 21.8364 93.8338 21.0369 93.047L20.4686 93.6061L19.9004 94.1651C20.3352 94.5928 20.5908 95.2009 20.5908 96.0857H21.3944ZM20.4686 93.6061L21.0448 93.0549C20.267 92.2674 19.2389 91.9045 18.0515 91.9045V92.6952V93.4859C18.887 93.4859 19.4701 93.7302 19.8924 94.1572L20.4686 93.6061ZM18.0515 92.6952V91.9045H14.3229V92.6952V93.4859H18.0515V92.6952ZM14.3229 92.6952H13.5194V99.4762H14.3229H15.1265V92.6952H14.3229Z" fill="black"/>
</g>
<path d="M22.768 23.9844H21.6965V25.0386H22.768V23.9844Z" fill="#4B0001" stroke="black" stroke-width="0.4" stroke-linejoin="round"/>
<path d="M27.0535 23.9844H22.7678V25.0386H27.0535V23.9844Z" fill="#D2BA44" stroke="black" stroke-width="0.4" stroke-linejoin="round"/>
<path d="M31.8749 29.0581C34.4268 29.0581 36.4955 27.0226 36.4955 24.5116C36.4955 22.0006 34.4268 19.9651 31.8749 19.9651C29.3231 19.9651 27.2544 22.0006 27.2544 24.5116C27.2544 27.0226 29.3231 29.0581 31.8749 29.0581Z" fill="#FF0000" stroke="black" stroke-width="0.5"/>
<path d="M22.768 72.217H21.6965V73.2713H22.768V72.217Z" fill="#4B0001" stroke="black" stroke-width="0.4" stroke-linejoin="round"/>
<path d="M27.0535 72.217H22.7678V73.2713H27.0535V72.217Z" fill="#D2BA44" stroke="black" stroke-width="0.4" stroke-linejoin="round"/>
<path d="M31.8749 77.2908C34.4268 77.2908 36.4955 75.2552 36.4955 72.7443C36.4955 70.2333 34.4268 68.1978 31.8749 68.1978C29.3231 68.1978 27.2544 70.2333 27.2544 72.7443C27.2544 75.2552 29.3231 77.2908 31.8749 77.2908Z" fill="#FF0000" stroke="black" stroke-width="0.5"/>
<path d="M29.6318 45.5362H29.8327C29.8702 45.5441 29.9076 45.5612 29.9452 45.5876C30.0335 45.6508 30.0871 45.7734 30.1059 45.9552L30.1541 46.5601C30.1541 46.5627 30.2425 46.5074 30.4193 46.3941C30.6496 46.2465 30.8076 46.1305 30.8934 46.0462C30.9121 46.0251 30.9229 46.0066 30.9255 45.9908C30.9335 45.9408 30.9241 45.8999 30.8974 45.8683C30.8787 45.8498 30.8558 45.8406 30.8291 45.8406C30.8076 45.8406 30.7903 45.8313 30.7768 45.8129C30.7688 45.805 30.7648 45.7932 30.7648 45.7773C30.7648 45.7246 30.8076 45.6693 30.8934 45.6113C30.9711 45.5586 31.0514 45.5322 31.1344 45.5322C31.1827 45.5322 31.2282 45.5467 31.271 45.5757C31.3541 45.6285 31.3835 45.7194 31.3594 45.8485C31.3327 45.9803 31.1599 46.1569 30.8411 46.3783C30.7072 46.4758 30.5344 46.5904 30.3228 46.7222C30.2238 46.7802 30.1742 46.8145 30.1742 46.825L30.2344 47.6039C30.2451 47.7251 30.2732 47.8134 30.3188 47.8687C30.3429 47.8978 30.3817 47.9162 30.4353 47.9241H30.4635L30.4876 47.9004C30.5224 47.8713 30.5653 47.8437 30.6161 47.8173C30.667 47.7936 30.7152 47.7804 30.7608 47.7778C30.7875 47.7778 30.8063 47.7818 30.817 47.7897C30.8411 47.8029 30.8532 47.8213 30.8532 47.845C30.8478 47.9188 30.801 47.9913 30.7126 48.0625C30.6081 48.1494 30.4849 48.2034 30.3429 48.2246C30.2679 48.2351 30.1822 48.2364 30.0858 48.2285C30.0751 48.2259 30.0671 48.2246 30.0617 48.2246C30.0188 48.214 29.9799 48.1943 29.9452 48.1653C29.8809 48.1152 29.8367 48.0282 29.8126 47.9043C29.7965 47.8279 29.7804 47.6671 29.7643 47.422C29.7483 47.198 29.7402 47.0846 29.7402 47.082C29.7322 47.082 29.6211 47.1505 29.4068 47.2876C29.0934 47.4879 28.8925 47.6315 28.8041 47.7185C28.7854 47.7396 28.7746 47.758 28.7719 47.7739C28.7639 47.8239 28.7733 47.8648 28.8001 47.8964C28.8108 47.9069 28.8228 47.9136 28.8362 47.9162C28.8577 47.9215 28.871 47.9241 28.8764 47.9241C28.9005 47.9241 28.9179 47.9359 28.9286 47.9597C28.9527 47.9992 28.9286 48.0519 28.8563 48.1178C28.7866 48.1785 28.7117 48.2153 28.6313 48.2285C28.5751 48.2338 28.5322 48.2325 28.5027 48.2246C28.4706 48.2166 28.4344 48.1955 28.3943 48.1613C28.33 48.098 28.3125 48.0124 28.342 47.9043C28.3474 47.8832 28.3541 47.8634 28.3621 47.845C28.4264 47.7159 28.6112 47.5485 28.9166 47.3429C29.096 47.2164 29.3344 47.0636 29.6318 46.8843C29.6907 46.8501 29.7202 46.829 29.7202 46.8211L29.6679 46.1569C29.6465 45.975 29.597 45.8722 29.5193 45.8485C29.463 45.8406 29.4349 45.8393 29.4349 45.8446L29.4027 45.8722C29.3224 45.9434 29.2366 45.9816 29.1456 45.9869C29.1161 45.9869 29.0947 45.9829 29.0813 45.975C29.0706 45.9697 29.0612 45.9592 29.0532 45.9434C29.0505 45.9329 29.0505 45.9183 29.0532 45.8999C29.0773 45.8103 29.1456 45.7286 29.2581 45.6548C29.3572 45.5862 29.4817 45.5467 29.6318 45.5362Z" fill="black"/>
<path d="M79.1357 48.9561C79.1357 48.8639 79.1451 48.7558 79.1639 48.6319C79.1826 48.5054 79.2094 48.371 79.2442 48.2287C79.2817 48.0864 79.3246 47.9375 79.3728 47.7819C79.4237 47.6264 79.4799 47.471 79.5415 47.3154C79.5951 47.1757 79.6567 47.0347 79.7264 46.8924C79.7987 46.7501 79.8764 46.6104 79.9594 46.4733C80.0424 46.3363 80.1281 46.2058 80.2165 46.0819C80.3076 45.958 80.399 45.8447 80.4898 45.7419C80.5323 45.7419 80.5781 45.7472 80.6264 45.7578C80.677 45.7683 80.7252 45.7828 80.771 45.8012C80.8192 45.8171 80.8618 45.8368 80.8996 45.8605C80.9398 45.8843 80.9719 45.908 80.996 45.9317C80.7951 46.1347 80.6143 46.3403 80.4536 46.5485C80.2929 46.754 80.1657 46.9478 80.0719 47.1296C80.021 47.2298 79.9741 47.3233 79.9313 47.4103C79.8911 47.4973 79.8536 47.5843 79.8188 47.6712C79.784 47.7556 79.7518 47.8412 79.7223 47.9282C79.6956 48.0126 79.6701 48.1022 79.646 48.1971C80.1603 47.5513 80.542 47.2285 80.7911 47.2285C80.861 47.2285 80.9357 47.2508 81.0161 47.2957C81.0965 47.3405 81.1672 47.4011 81.229 47.4775C81.1463 47.5671 81.0603 47.6752 80.9719 47.8017C80.8835 47.9282 80.8015 48.0561 80.7268 48.1852C80.6545 48.3117 80.5942 48.4303 80.546 48.541C80.5002 48.6491 80.4777 48.7294 80.4777 48.7822C80.4777 48.8085 80.4817 48.827 80.4898 48.8375C80.4978 48.8454 80.5155 48.8494 80.542 48.8494C80.5822 48.8494 80.6143 48.8441 80.6384 48.8336C80.6625 48.8231 80.677 48.8178 80.6826 48.8178C80.6963 48.8389 80.7043 48.8533 80.7067 48.8612C80.7091 48.8692 80.7107 48.8757 80.7107 48.881C80.7107 48.8915 80.6947 48.9073 80.6625 48.9285C80.6304 48.9469 80.5918 48.9666 80.546 48.9878C80.5034 49.0062 80.46 49.0233 80.4174 49.0392C80.3748 49.055 80.3425 49.0629 80.321 49.0629C80.2943 49.0629 80.2674 49.055 80.2407 49.0392C80.2139 49.0259 80.1898 49.0075 80.1683 48.9838C80.1496 48.9601 80.1335 48.9338 80.1201 48.9047C80.1094 48.8757 80.104 48.8454 80.104 48.8138C80.104 48.7743 80.1147 48.7163 80.1362 48.6399C80.1603 48.5608 80.1924 48.4699 80.2326 48.3671C80.2728 48.2617 80.321 48.147 80.3773 48.0231C80.4335 47.8992 80.4938 47.7727 80.5581 47.6436C80.5581 47.6331 80.5524 47.6278 80.542 47.6278C80.534 47.6278 80.5123 47.6383 80.4777 47.6594C80.4456 47.6805 80.415 47.7015 80.3853 47.7226C80.2889 47.7938 80.1911 47.8821 80.092 47.9875C79.9956 48.0903 79.9005 48.2036 79.8067 48.3275C79.7157 48.4514 79.6286 48.5832 79.5456 48.7229C79.4652 48.8599 79.3955 48.9983 79.3366 49.138C79.3286 49.1564 79.3165 49.1736 79.3005 49.1894C79.2844 49.2052 79.271 49.2131 79.2603 49.2131C79.2523 49.2131 79.2402 49.2039 79.2241 49.1854C79.2107 49.167 79.1974 49.1433 79.184 49.1143C79.1733 49.0879 79.1625 49.0603 79.1518 49.0312C79.1411 49.0022 79.1357 48.9772 79.1357 48.9561Z" fill="black"/>
<path d="M32.3799 129.674V127.924H36.6107V119.683H32.9223V117.933H38.5634V127.924H42.5772V129.674H32.3799ZM37.3701 115.819C36.8927 115.819 36.5167 115.698 36.2418 115.456C35.967 115.214 35.8296 114.887 35.8296 114.474C35.8296 114.047 35.967 113.713 36.2418 113.471C36.5167 113.215 36.8927 113.086 37.3701 113.086C37.8474 113.086 38.2235 113.215 38.4983 113.471C38.7731 113.713 38.9105 114.047 38.9105 114.474C38.9105 114.887 38.7731 115.214 38.4983 115.456C38.2235 115.698 37.8474 115.819 37.3701 115.819Z" fill="#006FFF"/>
<path d="M27.592 104.057C27.6372 103.911 27.5534 103.756 27.4048 103.712L24.9832 102.987C24.8346 102.943 24.6775 103.025 24.6323 103.171C24.587 103.317 24.6708 103.472 24.8194 103.517L26.972 104.161L26.3168 106.279C26.2716 106.426 26.3554 106.58 26.504 106.624C26.6526 106.669 26.8097 106.586 26.855 106.44L27.592 104.057ZM17.6802 119.395L17.3999 119.372L17.3989 119.384V119.395H17.6802ZM27.5517 125.091C27.642 124.967 27.6128 124.794 27.4864 124.705L25.4266 123.257C25.3002 123.169 25.1245 123.197 25.0343 123.322C24.944 123.446 24.9732 123.619 25.0996 123.708L26.9306 124.994L25.6228 126.796C25.5325 126.92 25.5618 127.094 25.6882 127.182C25.8146 127.271 25.9902 127.242 26.0805 127.118L27.5517 125.091ZM27.3229 103.977L27.1905 103.732C26.1513 104.278 24.6315 105.412 23.4096 107.055C22.1849 108.702 21.2515 110.873 21.4172 113.483L21.6979 113.465L21.9786 113.448C21.8229 110.997 22.6974 108.95 23.8635 107.382C25.0321 105.81 26.4855 104.73 27.4552 104.221L27.3229 103.977ZM21.6979 113.465L21.4172 113.483C21.5792 116.033 22.2897 117.914 23.4002 118.791C23.9681 119.239 24.6356 119.418 25.3547 119.285C26.0631 119.154 26.7946 118.725 27.5218 118.009L27.3229 117.814L27.124 117.619C26.4449 118.287 25.8104 118.638 25.2506 118.741C24.7015 118.843 24.1988 118.711 23.7522 118.359C22.8338 117.635 22.1381 115.958 21.9786 113.448L21.6979 113.465ZM27.3229 117.814L27.5218 118.009C27.9679 117.57 28.4451 117.02 28.8283 116.439C29.2085 115.862 29.512 115.23 29.5812 114.633C29.6524 114.017 29.4722 113.429 28.885 113.012C28.3232 112.614 27.4239 112.398 26.1177 112.398V112.674V112.951C27.3828 112.951 28.1376 113.164 28.5559 113.461C28.9488 113.74 29.075 114.115 29.0223 114.571C28.9675 115.044 28.717 115.591 28.3563 116.138C27.9988 116.68 27.5484 117.2 27.124 117.619L27.3229 117.814ZM26.1177 112.674V112.398C23.5158 112.398 21.4342 112.897 19.948 114.038C18.4531 115.185 17.6053 116.947 17.3999 119.372L17.6802 119.395L17.9604 119.418C18.1568 117.099 18.9563 115.501 20.294 114.474C21.6403 113.441 23.5766 112.951 26.1177 112.951V112.674ZM17.6802 119.395H17.3989C17.3981 121.217 17.8921 123.02 19.4364 124.191C20.9737 125.356 23.4803 125.841 27.3692 125.203L27.3229 124.93L27.2767 124.657C23.4512 125.285 21.1355 124.781 19.7797 123.752C18.4308 122.729 17.9606 121.132 17.9614 119.395H17.6802Z" fill="#D2BA44"/>
<path d="M35.8394 107.737C34.7079 107.737 33.7308 107.526 32.9079 107.105C32.0851 106.683 31.4422 106.076 30.9794 105.283C30.5336 104.473 30.3108 103.521 30.3108 102.424V98.7297C30.3108 97.6164 30.5336 96.6637 30.9794 95.8706C31.4422 95.0775 32.0851 94.4703 32.9079 94.0488C33.7308 93.6274 34.7079 93.4163 35.8394 93.4163C36.9708 93.4163 37.9479 93.6274 38.7708 94.0488C39.5936 94.4703 40.2279 95.0775 40.6736 95.8706C41.1365 96.6637 41.3679 97.6078 41.3679 98.7044V102.424C41.3679 103.521 41.1365 104.473 40.6736 105.283C40.2279 106.076 39.5936 106.683 38.7708 107.105C37.9479 107.526 36.9708 107.737 35.8394 107.737ZM35.8394 105.713C36.8508 105.713 37.6394 105.435 38.2051 104.878C38.7708 104.322 39.0536 103.503 39.0536 102.424V98.7297C39.0536 97.6504 38.7708 96.8321 38.2051 96.2754C37.6394 95.7188 36.8508 95.4405 35.8394 95.4405C34.8451 95.4405 34.0565 95.7188 33.4736 96.2754C32.9079 96.8321 32.6251 97.6504 32.6251 98.7297V102.424C32.6251 103.503 32.9079 104.322 33.4736 104.878C34.0565 105.435 34.8451 105.713 35.8394 105.713Z" fill="#006FFF"/>
<mask id="mask4_37_74" style="mask-type:luminance" maskUnits="userSpaceOnUse" x="28" y="92" width="15" height="18">
<path d="M42.5892 92.5117H28.9285V109.116H42.5892V92.5117Z" fill="white"/>
<path d="M35.8391 107.737C34.7077 107.737 33.7305 107.526 32.9077 107.105C32.0848 106.683 31.442 106.076 30.9791 105.283C30.5334 104.473 30.3105 103.521 30.3105 102.424V98.7297C30.3105 97.6164 30.5334 96.6637 30.9791 95.8706C31.442 95.0775 32.0848 94.4703 32.9077 94.0488C33.7305 93.6274 34.7077 93.4163 35.8391 93.4163C36.9705 93.4163 37.9477 93.6274 38.7705 94.0488C39.5934 94.4703 40.2277 95.0775 40.6734 95.8706C41.1363 96.6637 41.3677 97.6078 41.3677 98.7044V102.424C41.3677 103.521 41.1363 104.473 40.6734 105.283C40.2277 106.076 39.5934 106.683 38.7705 107.105C37.9477 107.526 36.9705 107.737 35.8391 107.737ZM35.8391 105.713C36.8506 105.713 37.6391 105.435 38.2048 104.878C38.7705 104.322 39.0534 103.503 39.0534 102.424V98.7297C39.0534 97.6504 38.7705 96.8321 38.2048 96.2754C37.6391 95.7188 36.8506 95.4405 35.8391 95.4405C34.8449 95.4405 34.0562 95.7188 33.4734 96.2754C32.9077 96.8321 32.6248 97.6504 32.6248 98.7297V102.424C32.6248 103.503 32.9077 104.322 33.4734 104.878C34.0562 105.435 34.8449 105.713 35.8391 105.713Z" fill="black"/>
</mask>
<g mask="url(#mask4_37_74)">
<path d="M30.9792 105.283L30.2726 105.659L30.2775 105.668L30.2824 105.677L30.9792 105.283ZM30.9792 95.8705L30.2824 95.4767L30.2792 95.4823L30.2761 95.4878L30.9792 95.8705ZM40.6735 95.8705L39.9704 96.2532L39.9735 96.2587L39.9767 96.2643L40.6735 95.8705ZM40.6735 105.283L39.9731 104.896L39.9704 104.9L40.6735 105.283ZM33.4735 96.2754L32.9138 95.7076L32.9096 95.7124L32.9053 95.7163L33.4735 96.2754ZM33.4735 104.878L32.9053 105.437L32.9096 105.441L32.9138 105.446L33.4735 104.878ZM35.8392 107.737V106.947C34.809 106.947 33.9647 106.755 33.279 106.403L32.9078 107.105L32.5366 107.806C33.4966 108.298 34.6065 108.528 35.8392 108.528V107.737ZM32.9078 107.105L33.279 106.403C32.5925 106.052 32.0625 105.551 31.676 104.889L30.9792 105.283L30.2824 105.677C30.8216 106.6 31.5774 107.314 32.5366 107.806L32.9078 107.105ZM30.9792 105.283L31.6858 104.907C31.3149 104.232 31.1142 103.414 31.1142 102.424H30.3107H29.5071C29.5071 103.626 29.7522 104.714 30.2726 105.659L30.9792 105.283ZM30.3107 102.424H31.1142V98.7297H30.3107H29.5071V102.424H30.3107ZM30.3107 98.7297H31.1142C31.1142 97.72 31.316 96.9047 31.6823 96.2532L30.9792 95.8705L30.2761 95.4878C29.751 96.4216 29.5071 97.5128 29.5071 98.7297H30.3107ZM30.9792 95.8705L31.676 96.2643C32.0625 95.6025 32.5925 95.102 33.279 94.7501L32.9078 94.0487L32.5366 93.3474C31.5774 93.8392 30.8216 94.5532 30.2824 95.4767L30.9792 95.8705ZM32.9078 94.0487L33.279 94.7501C33.9647 94.3982 34.809 94.2069 35.8392 94.2069V93.4162V92.6255C34.6065 92.6255 33.4966 92.8556 32.5366 93.3474L32.9078 94.0487ZM35.8392 93.4162V94.2069C36.8694 94.2069 37.7137 94.3982 38.3995 94.7501L38.7707 94.0487L39.1418 93.3474C38.1819 92.8556 37.0719 92.6255 35.8392 92.6255V93.4162ZM38.7707 94.0487L38.3995 94.7501C39.0834 95.1004 39.6017 95.5977 39.9704 96.2532L40.6735 95.8705L41.3766 95.4878C40.8539 94.558 40.1036 93.84 39.1418 93.3474L38.7707 94.0487ZM40.6735 95.8705L39.9767 96.2643C40.3569 96.9158 40.5642 97.7184 40.5642 98.7044H41.3678H42.1714C42.1714 97.497 41.9158 96.4114 41.3703 95.4767L40.6735 95.8705ZM41.3678 98.7044H40.5642V102.424H41.3678H42.1714V98.7044H41.3678ZM41.3678 102.424H40.5642C40.5642 103.409 40.3571 104.223 39.9731 104.896L40.6735 105.283L41.3739 105.67C41.9157 104.723 42.1714 103.631 42.1714 102.424H41.3678ZM40.6735 105.283L39.9704 104.9C39.6017 105.556 39.0834 106.053 38.3995 106.403L38.7707 107.105L39.1418 107.806C40.1036 107.313 40.8539 106.596 41.3766 105.666L40.6735 105.283ZM38.7707 107.105L38.3995 106.403C37.7137 106.755 36.8694 106.947 35.8392 106.947V107.737V108.528C37.0719 108.528 38.1819 108.298 39.1418 107.806L38.7707 107.105ZM35.8392 105.713V106.504C37.0045 106.504 38.0195 106.179 38.7731 105.437L38.2049 104.878L37.6367 104.319C37.259 104.691 36.6968 104.922 35.8392 104.922V105.713ZM38.2049 104.878L38.7731 105.437C39.5385 104.684 39.8571 103.634 39.8571 102.424H39.0535H38.2499C38.2499 103.373 38.0028 103.959 37.6367 104.319L38.2049 104.878ZM39.0535 102.424H39.8571V98.7297H39.0535H38.2499V102.424H39.0535ZM39.0535 98.7297H39.8571C39.8571 97.5199 39.5385 96.4691 38.7731 95.7163L38.2049 96.2754L37.6367 96.8344C38.0028 97.1949 38.2499 97.78 38.2499 98.7297H39.0535ZM38.2049 96.2754L38.7731 95.7163C38.0195 94.9747 37.0045 94.6497 35.8392 94.6497V95.4404V96.2311C36.6968 96.2311 37.259 96.4627 37.6367 96.8344L38.2049 96.2754ZM35.8392 95.4404V94.6497C34.6855 94.6497 33.6788 94.977 32.9138 95.7076L33.4735 96.2754L34.0332 96.8431C34.4339 96.4604 35.0043 96.2311 35.8392 96.2311V95.4404ZM33.4735 96.2754L32.9053 95.7163C32.14 96.4691 31.8214 97.5199 31.8214 98.7297H32.6249H33.4285C33.4285 97.78 33.6756 97.1949 34.0417 96.8344L33.4735 96.2754ZM32.6249 98.7297H31.8214V102.424H32.6249H33.4285V98.7297H32.6249ZM32.6249 102.424H31.8214C31.8214 103.634 32.14 104.684 32.9053 105.437L33.4735 104.878L34.0417 104.319C33.6756 103.959 33.4285 103.373 33.4285 102.424H32.6249ZM33.4735 104.878L32.9138 105.446C33.6788 106.176 34.6855 106.504 35.8392 106.504V105.713V104.922C35.0043 104.922 34.4339 104.693 34.0332 104.31L33.4735 104.878Z" fill="black"/>
</g>
</svg>
