<svg width="159" height="141" viewBox="0 0 159 141" fill="none" xmlns="http://www.w3.org/2000/svg">
<path d="M82.813 116.352L87.4348 122.928L93.9852 118.359L89.3634 111.783L82.813 116.352Z" fill="#4B0001" stroke="black" stroke-width="2" stroke-linejoin="round"/>
<path d="M64.3259 90.0477L82.813 116.353L89.3633 111.783L70.8762 85.478L64.3259 90.0477Z" fill="#D2BA44" stroke="black" stroke-width="2" stroke-linejoin="round"/>
<path d="M76.4278 40.4205C65.42 24.7578 43.8492 20.8836 28.2481 31.7673C12.6469 42.651 8.92331 64.1712 19.9311 79.8339C30.9389 95.4967 52.5098 99.3709 68.1109 88.4871C83.712 77.6034 87.4357 56.0833 76.4278 40.4205Z" fill="#FF0000" stroke="black" stroke-width="2"/>
<path d="M69.6718 111.811L65.0615 118.395L71.588 122.999L76.1983 116.415L69.6718 111.811Z" fill="#4B0001" stroke="black" stroke-width="2" stroke-linejoin="round"/>
<path d="M88.1132 85.4741L69.6719 111.811L76.1983 116.415L94.6397 90.0778L88.1132 85.4741Z" fill="#D2BA44" stroke="black" stroke-width="2" stroke-linejoin="round"/>
<path d="M138.896 79.961C149.877 64.2791 146.177 42.6776 130.633 31.7128C115.089 20.7479 93.586 24.5718 82.6055 40.2536C71.6249 55.9355 75.3245 77.537 90.8687 88.5018C106.413 99.4667 127.915 95.6428 138.896 79.961Z" fill="#FF0000" stroke="black" stroke-width="2"/>
<path d="M79.5 0.5C86.4079 0.5 92 6.10144 92 13.0001C92 19.8986 86.4079 25.5 79.5 25.5C72.5916 25.5 67 19.8986 67 13.0001C67 6.10144 72.5916 0.5 79.5 0.5Z" fill="#D2BA44" stroke="black"/>
<path d="M73 19.5C75.1667 21 80.8 23.1 86 19.5" stroke="black" stroke-linecap="round"/>
</svg>
